<?xml version="1.0" standalone="no"?>
<!DOCTYPE svg PUBLIC "-//W3C//DTD SVG 20010904//EN"
 "http://www.w3.org/TR/2001/REC-SVG-20010904/DTD/svg10.dtd">
<svg version="1.0" xmlns="http://www.w3.org/2000/svg"
 width="1298.000000pt" height="1298.000000pt" viewBox="0 0 1298.000000 1298.000000"
 preserveAspectRatio="xMidYMid meet">
<metadata>
Created by potrace 1.11, written by Peter Selinger 2001-2013
</metadata>
<g transform="translate(0.000000,1298.000000) scale(0.100000,-0.100000)"
fill="#000000" stroke="none">
<path d="M6198 12976 c-1 -2 -60 -6 -129 -10 -69 -4 -136 -8 -150 -11 -13 -2
-55 -6 -94 -9 -38 -3 -79 -8 -90 -10 -11 -2 -49 -7 -85 -11 -36 -4 -74 -9 -85
-11 -11 -2 -40 -6 -65 -9 -43 -6 -63 -9 -120 -20 -14 -3 -38 -7 -55 -10 -16
-3 -41 -8 -55 -10 -14 -3 -36 -7 -50 -10 -14 -3 -47 -9 -75 -15 -27 -6 -59
-12 -70 -14 -24 -5 -183 -45 -320 -81 -94 -25 -386 -116 -430 -135 -11 -4 -65
-25 -120 -45 -351 -131 -708 -303 -1030 -496 -71 -43 -143 -86 -160 -96 -16
-10 -34 -21 -40 -26 -5 -4 -71 -49 -145 -99 -112 -76 -362 -258 -380 -278 -3
-3 -30 -25 -60 -50 -271 -219 -648 -591 -877 -865 -259 -311 -478 -627 -678
-979 -65 -115 -265 -508 -265 -521 0 -3 -12 -32 -26 -63 -14 -31 -35 -79 -46
-107 -11 -27 -26 -63 -33 -80 -8 -16 -21 -48 -28 -70 -8 -22 -34 -92 -57 -155
-66 -183 -127 -383 -184 -603 -26 -100 -91 -411 -101 -482 -3 -22 -10 -60 -15
-85 -5 -25 -12 -67 -15 -95 -3 -27 -8 -63 -10 -80 -2 -16 -6 -46 -9 -65 -3
-19 -8 -66 -11 -105 -4 -38 -8 -85 -10 -103 -26 -225 -26 -979 0 -1144 2 -13
6 -57 10 -98 3 -41 8 -88 10 -105 12 -88 27 -193 31 -215 2 -14 9 -55 14 -93
6 -37 14 -86 19 -110 6 -23 12 -57 16 -75 54 -313 219 -861 354 -1182 11 -25
38 -90 62 -145 101 -240 302 -619 465 -877 113 -178 380 -551 414 -578 3 -3
13 -14 21 -26 14 -21 68 -86 149 -178 24 -28 51 -59 60 -69 52 -62 218 -232
346 -357 326 -317 725 -625 1114 -859 74 -45 142 -86 150 -91 8 -6 22 -13 30
-17 8 -4 38 -20 65 -36 70 -41 388 -200 498 -249 154 -68 385 -158 532 -208
77 -26 147 -50 155 -53 125 -46 612 -163 838 -202 17 -3 44 -7 60 -10 39 -6
171 -26 212 -31 345 -41 475 -49 845 -49 255 0 386 5 555 19 136 12 189 17
206 20 11 2 62 9 114 15 52 7 118 16 145 21 28 5 61 11 75 14 25 4 277 52 315
60 199 41 755 207 860 256 11 5 63 26 115 46 52 20 119 47 148 60 29 13 55 24
57 24 14 0 373 176 510 250 136 73 373 218 520 317 123 83 401 286 415 303 3
3 27 24 55 45 55 44 70 57 200 171 261 230 543 524 755 788 8 10 20 23 25 30
31 35 225 299 298 406 382 562 679 1197 866 1850 32 111 90 338 97 380 3 14
16 77 29 140 13 63 31 165 40 225 10 61 19 119 21 130 2 11 6 43 9 70 3 28 7
61 10 75 2 14 7 61 11 105 3 44 8 89 10 100 18 98 25 750 11 980 -11 170 -13
188 -42 434 -8 60 -22 158 -30 201 -3 14 -7 39 -10 55 -6 37 -42 224 -54 285
-30 144 -128 509 -151 565 -5 11 -12 31 -15 45 -4 14 -23 70 -42 125 -151 436
-374 904 -611 1285 -64 103 -197 305 -214 325 -5 5 -41 55 -80 110 -40 55 -75
102 -78 105 -3 3 -19 23 -35 45 -17 22 -32 42 -35 45 -3 3 -37 43 -75 90 -243
296 -560 615 -845 850 -41 34 -86 72 -100 83 -62 53 -326 247 -430 317 -106
71 -358 230 -364 230 -2 0 -43 23 -92 51 -102 59 -423 220 -534 269 -41 18
-93 41 -115 50 -152 66 -368 144 -685 245 -66 22 -383 102 -475 121 -44 9 -89
18 -100 20 -11 2 -36 7 -55 10 -19 3 -42 7 -50 9 -8 3 -32 7 -54 11 -21 3 -48
7 -59 10 -12 2 -39 6 -62 9 -22 3 -65 10 -95 15 -30 5 -89 12 -130 15 -41 4
-77 8 -80 10 -3 2 -52 6 -110 10 -58 5 -118 10 -135 12 -38 4 -722 13 -727 9z"/>
</g>
</svg>
